<svg id="Layer_1" data-name="Layer 1" xmlns="http://www.w3.org/2000/svg" viewBox="0 0 321.24 352.06"><defs><style>.cls-1{fill:#00C9FF;stroke:#00C9FF;stroke-miterlimit:10;stroke-width:20px;}</style></defs><title>key-icon</title><path class="cls-1" d="M319.29,25L193.48,167.91A108.56,108.56,0,0,0,67.22,195C27.72,239.87,32.46,308.6,77.33,348.1a108,108,0,0,0,152.51-10c32.66-37.1,36-89.64,9.38-130.35l12.93-14.68-1.07-23.83L260,159.16l15.33-.41,4-14.46,18.23-2.74,6.08-6.91-0.87-8.13L314,125l-1.29-27.28,26.59,0.52,4.47-5.08-2.51-12,9.8,3.73,8.52-9.68-2.29-45.33ZM102.06,272.52a31.72,31.72,0,1,1,2.85,44.77A31.72,31.72,0,0,1,102.06,272.52Z" transform="translate(-39.39 -23.94)"/></svg>
